HIERARCHY
ROOT newVegas:Hips
{
	OFFSET 0.000000 96.479958 0.000000
	CHANNELS 6 Xposition Yposition Zposition Xrotation Yrotation Zrotation
	JOINT newVegas:Pelvis
	{
		OFFSET 0.000000 0.000000 0.000000
		CHANNELS 3 Xrotation Yrotation Zrotation
		JOINT newVegas:LeftUpLeg
		{
			OFFSET 18.735201 -5.666702 -4.541200
			CHANNELS 3 Xrotation Yrotation Zrotation
			JOINT newVegas:LeftLeg
			{
				OFFSET -0.021200 -31.938179 0.493100
				CHANNELS 3 Xrotation Yrotation Zrotation
				JOINT newVegas:LeftFoot
				{
					OFFSET 0.021200 -31.938179 -4.336299
					CHANNELS 3 Xrotation Yrotation Zrotation
					JOINT newVegas:LeftToeBase
					{
						OFFSET 0.943001 -26.722000 15.023500
						CHANNELS 3 Xrotation Yrotation Zrotation
						End Site
						{
							OFFSET 0.000000 30.670183 0.000000
						}
					}
				}
				JOINT newVegas:Left_PantLeg
				{
					OFFSET 0.663870 -9.044666 -1.108900
					CHANNELS 3 Xrotation Yrotation Zrotation
					End Site
					{
						OFFSET 1.415995 20.635357 0.000000
					}
				}
			}
		}
		JOINT newVegas:RightUpLeg
		{
			OFFSET -18.735201 -5.666702 -4.541200
			CHANNELS 3 Xrotation Yrotation Zrotation
			JOINT newVegas:RightLeg
			{
				OFFSET 0.018946 -31.938133 0.493100
				CHANNELS 3 Xrotation Yrotation Zrotation
				JOINT newVegas:RightFoot
				{
					OFFSET -0.018946 -31.938126 -4.336299
					CHANNELS 3 Xrotation Yrotation Zrotation
					JOINT newVegas:RightToeBase
					{
						OFFSET -0.943001 -26.722004 15.023500
						CHANNELS 3 Xrotation Yrotation Zrotation
						End Site
						{
							OFFSET 0.000000 30.670187 0.000000
						}
					}
				}
				JOINT newVegas:Right_PantLeg
				{
					OFFSET -0.661674 -9.044716 -1.108900
					CHANNELS 3 Xrotation Yrotation Zrotation
					End Site
					{
						OFFSET -1.415958 20.635269 0.000000
					}
				}
			}
		}
	}
	JOINT newVegas:Spine
	{
		OFFSET 0.000000 10.199997 -0.299500
		CHANNELS 3 Xrotation Yrotation Zrotation
		JOINT newVegas:Spine1
		{
			OFFSET 0.000000 11.900002 -1.516600
			CHANNELS 3 Xrotation Yrotation Zrotation
			JOINT newVegas:Spine2
			{
				OFFSET 0.000000 13.600006 -2.842500
				CHANNELS 3 Xrotation Yrotation Zrotation
				JOINT newVegas:Neck
				{
					OFFSET 0.000000 9.624100 -2.890100
					CHANNELS 3 Xrotation Yrotation Zrotation
					JOINT newVegas:Head
					{
						OFFSET 0.000000 14.068802 -1.351900
						CHANNELS 3 Xrotation Yrotation Zrotation
						JOINT newVegas:Hair_Back
						{
							OFFSET 0.000000 3.231903 -17.524799
							CHANNELS 3 Xrotation Yrotation Zrotation
							End Site
							{
								OFFSET 0.000000 19.849884 0.000000
							}
						}
						JOINT newVegas:Hair_Front
						{
							OFFSET 0.000000 31.260406 4.573800
							CHANNELS 3 Xrotation Yrotation Zrotation
							JOINT newVegas:Hair_Front1
							{
								OFFSET 0.000000 2.284103 11.993300
								CHANNELS 3 Xrotation Yrotation Zrotation
								JOINT newVegas:Hair_Front2
								{
									OFFSET 0.000000 2.284103 11.993300
									CHANNELS 3 Xrotation Yrotation Zrotation
									End Site
									{
										OFFSET 0.000000 12.208862 0.000000
									}
								}
							}
						}
						JOINT newVegas:Jowel
						{
							OFFSET 0.000000 -7.458206 6.864100
							CHANNELS 3 Xrotation Yrotation Zrotation
							End Site
							{
								OFFSET 0.000000 19.849884 0.000000
							}
						}
					}
				}
				JOINT newVegas:LeftShoulder
				{
					OFFSET 15.263000 10.923401 -0.547700
					CHANNELS 3 Xrotation Yrotation Zrotation
					JOINT newVegas:LeftArm
					{
						OFFSET 25.438599 -2.830597 -13.032500
						CHANNELS 3 Xrotation Yrotation Zrotation
						JOINT newVegas:LeftForeArm
						{
							OFFSET 29.960503 0.000000 0.000000
							CHANNELS 3 Xrotation Yrotation Zrotation
							JOINT newVegas:LeftHand
							{
								OFFSET 27.849251 0.000000 0.000000
								CHANNELS 3 Xrotation Yrotation Zrotation
								JOINT newVegas:LeftHandThumb1
								{
									OFFSET 4.487587 -3.305161 6.305391
									CHANNELS 3 Xrotation Yrotation Zrotation
									JOINT newVegas:LeftHandThumb2
									{
										OFFSET 5.480453 -3.164139 3.164143
										CHANNELS 3 Xrotation Yrotation Zrotation
										JOINT newVegas:LeftHandThumb3
										{
											OFFSET 5.159721 -2.978973 2.978967
											CHANNELS 3 Xrotation Yrotation Zrotation
											End Site
											{
												OFFSET 2.494507 5.926697 1.738678
											}
										}
									}
								}
								JOINT newVegas:LeftHandIndex1
								{
									OFFSET 18.578728 -0.527832 5.208049
									CHANNELS 3 Xrotation Yrotation Zrotation
									JOINT newVegas:LeftHandIndex2
									{
										OFFSET 3.192009 0.000000 0.000000
										CHANNELS 3 Xrotation Yrotation Zrotation
										JOINT newVegas:LeftHandIndex3
										{
											OFFSET 3.835129 0.000000 0.000000
											CHANNELS 3 Xrotation Yrotation Zrotation
											End Site
											{
												OFFSET -0.034599 3.816971 0.371180
											}
										}
									}
								}
								JOINT newVegas:LeftHandMiddle1
								{
									OFFSET 18.476105 0.000000 0.000000
									CHANNELS 3 Xrotation Yrotation Zrotation
									JOINT newVegas:LeftHandMiddle2
									{
										OFFSET 3.324875 0.000000 0.000000
										CHANNELS 3 Xrotation Yrotation Zrotation
										JOINT newVegas:LeftHandMiddle3
										{
											OFFSET 4.596550 0.000000 0.000000
											CHANNELS 3 Xrotation Yrotation Zrotation
											End Site
											{
												OFFSET 0.057701 4.578827 0.399218
											}
										}
									}
								}
								JOINT newVegas:LeftHandRing1
								{
									OFFSET 17.732719 0.121887 -4.201567
									CHANNELS 3 Xrotation Yrotation Zrotation
									JOINT newVegas:LeftHandRing2
									{
										OFFSET 2.733170 0.000000 0.000000
										CHANNELS 3 Xrotation Yrotation Zrotation
										JOINT newVegas:LeftHandRing3
										{
											OFFSET 3.178268 0.000000 0.000000
											CHANNELS 3 Xrotation Yrotation Zrotation
											End Site
											{
												OFFSET 0.119102 3.170624 0.185394
											}
										}
									}
								}
								JOINT newVegas:LeftHandPinky1
								{
									OFFSET 15.989624 -0.606689 -7.535461
									CHANNELS 3 Xrotation Yrotation Zrotation
									JOINT newVegas:LeftHandPinky2
									{
										OFFSET 2.538986 0.000000 0.000000
										CHANNELS 3 Xrotation Yrotation Zrotation
										JOINT newVegas:LeftHandPinky3
										{
											OFFSET 2.593102 0.000000 0.000000
											CHANNELS 3 Xrotation Yrotation Zrotation
											End Site
											{
												OFFSET -0.150902 2.584198 0.152708
											}
										}
									}
								}
							}
							JOINT newVegas:Left_Sleeve
							{
								OFFSET 0.267448 -0.649796 0.577675
								CHANNELS 3 Xrotation Yrotation Zrotation
								End Site
								{
									OFFSET 0.000000 15.991241 0.000000
								}
							}
							JOINT newVegas:Left_CapeC
							{
								OFFSET 15.715958 -8.608795 -6.935905
								CHANNELS 3 Xrotation Yrotation Zrotation
								JOINT newVegas:Left_CapeC1
								{
									OFFSET 0.000000 -8.688499 0.000000
									CHANNELS 3 Xrotation Yrotation Zrotation
									End Site
									{
										OFFSET 0.000000 8.688499 0.000000
									}
								}
							}
						}
						JOINT newVegas:Left_CapeB
						{
							OFFSET 26.118385 -8.608795 -7.079235
							CHANNELS 3 Xrotation Yrotation Zrotation
							JOINT newVegas:Left_CapeB1
							{
								OFFSET 0.000000 -8.688499 0.000000
								CHANNELS 3 Xrotation Yrotation Zrotation
								End Site
								{
									OFFSET 0.000000 8.688499 0.000000
								}
							}
						}
						JOINT newVegas:Left_CapeA
						{
							OFFSET 5.115639 -8.608795 -10.395809
							CHANNELS 3 Xrotation Yrotation Zrotation
							JOINT newVegas:Left_CapeA1
							{
								OFFSET 0.000000 -8.688499 0.000000
								CHANNELS 3 Xrotation Yrotation Zrotation
								End Site
								{
									OFFSET 0.000000 8.688499 0.000000
								}
							}
						}
					}
				}
				JOINT newVegas:RightShoulder
				{
					OFFSET -15.263000 10.923401 -0.547700
					CHANNELS 3 Xrotation Yrotation Zrotation
					JOINT newVegas:RightArm
					{
						OFFSET -25.438599 -2.830597 -13.032500
						CHANNELS 3 Xrotation Yrotation Zrotation
						JOINT newVegas:RightForeArm
						{
							OFFSET -29.960503 0.000000 0.000000
							CHANNELS 3 Xrotation Yrotation Zrotation
							JOINT newVegas:RightHand
							{
								OFFSET -27.849251 0.000000 0.000000
								CHANNELS 3 Xrotation Yrotation Zrotation
								JOINT newVegas:RightHandThumb1
								{
									OFFSET -4.487587 -3.305161 6.305391
									CHANNELS 3 Xrotation Yrotation Zrotation
									JOINT newVegas:RightHandThumb2
									{
										OFFSET -5.480453 -3.164139 3.164143
										CHANNELS 3 Xrotation Yrotation Zrotation
										JOINT newVegas:RightHandThumb3
										{
											OFFSET -5.159721 -2.978973 2.978967
											CHANNELS 3 Xrotation Yrotation Zrotation
											End Site
											{
												OFFSET -2.494507 5.926697 1.738678
											}
										}
									}
								}
								JOINT newVegas:RightHandIndex1
								{
									OFFSET -18.578728 -0.527832 5.208049
									CHANNELS 3 Xrotation Yrotation Zrotation
									JOINT newVegas:RightHandIndex2
									{
										OFFSET -3.192009 0.000000 0.000000
										CHANNELS 3 Xrotation Yrotation Zrotation
										JOINT newVegas:RightHandIndex3
										{
											OFFSET -3.835129 0.000000 0.000000
											CHANNELS 3 Xrotation Yrotation Zrotation
											End Site
											{
												OFFSET 0.034599 3.816971 0.371180
											}
										}
									}
								}
								JOINT newVegas:RightHandMiddle1
								{
									OFFSET -18.476105 0.000000 0.000000
									CHANNELS 3 Xrotation Yrotation Zrotation
									JOINT newVegas:RightHandMiddle2
									{
										OFFSET -3.324875 0.000000 0.000000
										CHANNELS 3 Xrotation Yrotation Zrotation
										JOINT newVegas:RightHandMiddle3
										{
											OFFSET -4.596550 0.000000 0.000000
											CHANNELS 3 Xrotation Yrotation Zrotation
											End Site
											{
												OFFSET -0.057701 4.578827 0.399218
											}
										}
									}
								}
								JOINT newVegas:RightHandRing1
								{
									OFFSET -17.732719 0.121887 -4.201567
									CHANNELS 3 Xrotation Yrotation Zrotation
									JOINT newVegas:RightHandRing2
									{
										OFFSET -2.733170 0.000000 0.000000
										CHANNELS 3 Xrotation Yrotation Zrotation
										JOINT newVegas:RightHandRing3
										{
											OFFSET -3.178268 0.000000 0.000000
											CHANNELS 3 Xrotation Yrotation Zrotation
											End Site
											{
												OFFSET -0.119102 3.170624 0.185394
											}
										}
									}
								}
								JOINT newVegas:RightHandPinky1
								{
									OFFSET -15.989624 -0.606689 -7.535461
									CHANNELS 3 Xrotation Yrotation Zrotation
									JOINT newVegas:RightHandPinky2
									{
										OFFSET -2.538986 0.000000 0.000000
										CHANNELS 3 Xrotation Yrotation Zrotation
										JOINT newVegas:RightHandPinky3
										{
											OFFSET -2.593102 0.000000 0.000000
											CHANNELS 3 Xrotation Yrotation Zrotation
											End Site
											{
												OFFSET 0.150902 2.584198 0.152708
											}
										}
									}
								}
							}
							JOINT newVegas:Right_CapeC
							{
								OFFSET -15.715958 -8.608795 -6.935905
								CHANNELS 3 Xrotation Yrotation Zrotation
								JOINT newVegas:Right_CapeC1
								{
									OFFSET 0.000000 -8.688499 0.000000
									CHANNELS 3 Xrotation Yrotation Zrotation
									End Site
									{
										OFFSET 0.000000 8.688499 0.000000
									}
								}
							}
							JOINT newVegas:Right_Sleeve
							{
								OFFSET -0.267448 -0.649994 0.577675
								CHANNELS 3 Xrotation Yrotation Zrotation
								End Site
								{
									OFFSET 0.000000 15.991302 0.000000
								}
							}
						}
						JOINT newVegas:Right_CapeA
						{
							OFFSET -5.115540 -8.608795 -10.395824
							CHANNELS 3 Xrotation Yrotation Zrotation
							JOINT newVegas:Right_CapeA1
							{
								OFFSET 0.000000 -8.688499 0.000000
								CHANNELS 3 Xrotation Yrotation Zrotation
								End Site
								{
									OFFSET 0.000000 8.688499 0.000000
								}
							}
						}
						JOINT newVegas:Right_CapeB
						{
							OFFSET -26.118187 -8.608795 -7.079266
							CHANNELS 3 Xrotation Yrotation Zrotation
							JOINT newVegas:Right_CapeB1
							{
								OFFSET 0.000000 -8.688499 0.000000
								CHANNELS 3 Xrotation Yrotation Zrotation
								End Site
								{
									OFFSET 0.000000 8.688499 0.000000
								}
							}
						}
					}
				}
				JOINT newVegas:Left_Collar
				{
					OFFSET 18.625099 8.655502 8.828100
					CHANNELS 3 Xrotation Yrotation Zrotation
					JOINT newVegas:Left_Collar1
					{
						OFFSET 14.783401 10.540405 -1.259500
						CHANNELS 3 Xrotation Yrotation Zrotation
						End Site
						{
							OFFSET 0.000000 18.199875 0.000000
						}
					}
				}
				JOINT newVegas:Collar_Back
				{
					OFFSET 0.000000 15.630707 -20.132601
					CHANNELS 3 Xrotation Yrotation Zrotation
					End Site
					{
						OFFSET 0.000000 22.523010 0.000000
					}
				}
				JOINT newVegas:Left_Peck
				{
					OFFSET 17.239599 -5.132599 25.482599
					CHANNELS 3 Xrotation Yrotation Zrotation
					End Site
					{
						OFFSET 0.000000 22.523010 0.000000
					}
				}
				JOINT newVegas:Right_Peck
				{
					OFFSET -17.239599 -5.132202 25.482599
					CHANNELS 3 Xrotation Yrotation Zrotation
					End Site
					{
						OFFSET 0.000000 22.523010 0.000000
					}
				}
				JOINT newVegas:Right_Collar
				{
					OFFSET -18.625099 8.655792 8.828100
					CHANNELS 3 Xrotation Yrotation Zrotation
					JOINT newVegas:Right_Collar1
					{
						OFFSET -14.783401 10.539993 -1.259500
						CHANNELS 3 Xrotation Yrotation Zrotation
						End Site
						{
							OFFSET 0.000000 18.199631 0.000000
						}
					}
				}
			}
		}
		JOINT newVegas:Belly
		{
			OFFSET 0.000000 -6.540398 9.014299
			CHANNELS 3 Xrotation Yrotation Zrotation
			End Site
			{
				OFFSET 0.000000 11.566666 0.000000
			}
		}
	}
	JOINT newVegas:ElvisFacialAnim_Joint
	{
		OFFSET 1.000000 -95.330101 -8.825800
		CHANNELS 3 Xrotation Yrotation Zrotation
		End Site
		{
			OFFSET 0.000000 35.315800 0.000000
		}
	}
}
MOTION
Frames: 4
Frame Time: 0.033333
-0.242953 53.575233 3.473302 -0.840390 2.459957 1.225967 -0.000000 0.000000 0.000000 -100.612368 -6.817195 11.565385 122.519155 -3.875309 -3.147994 -19.773375 5.932182 -0.604405 -0.000000 -0.000001 0.000000 0.000001 -0.000001 0.000001 -100.927007 13.963499 -20.483860 133.869741 3.587667 2.987419 -8.377007 10.207030 -0.421277 0.000001 -0.000000 -0.000000 0.000002 0.000000 -0.000002 5.923608 -0.662183 -0.102821 11.853495 -0.825692 0.338265 11.853506 -0.825691 0.338265 -0.262371 0.132255 -0.108284 -0.262359 0.132255 -0.108283 -0.000001 0.000000 -0.000000 -0.262361 0.132256 -0.108284 -0.262363 0.132255 -0.108283 0.000002 0.000000 0.000000 -0.000001 0.000000 -0.000000 -0.389213 -11.679528 -2.010650 18.706001 -32.742308 -63.051942 -0.217381 -29.008906 -0.013013 -11.954736 -5.978203 15.158819 10.172697 8.271676 7.732391 5.049056 12.192017 2.235269 0.000002 0.000002 0.000001 0.855823 -10.518005 20.132541 0.081555 0.366460 -19.292875 -0.000002 0.000000 -0.000000 1.032124 -2.312561 5.101889 -0.304365 -1.630580 -20.376789 -0.000002 0.000000 0.000000 -0.166509 6.645216 2.062751 -0.189125 -1.377846 -16.387716 0.000001 0.000001 0.000001 0.481551 12.903181 7.762666 -0.072930 -1.180386 -9.846327 -0.000003 -0.000002 -0.000001 0.000002 0.000000 0.000000 0.000002 0.000000 0.000000 0.000001 -0.000000 0.000000 0.000001 0.000003 -0.000000 0.000000 0.000002 0.000000 0.000001 0.000003 -0.000000 -0.000001 0.000002 -0.000001 1.853459 -2.045621 6.759477 8.625820 16.175621 58.190637 -0.145084 30.519351 -0.021280 47.467974 4.517590 -4.765357 -4.499431 -4.299961 -10.058364 0.607548 -3.432721 -2.045486 0.000002 -0.000002 -0.000001 -4.845764 3.790345 -15.607259 0.023626 -0.312128 6.710487 -0.000000 0.000000 -0.000000 -0.219022 1.401712 -10.146325 -0.246498 1.269676 20.989936 0.000001 0.000001 -0.000000 0.264997 -12.394635 -9.701736 -0.400409 1.775935 16.671423 -0.000002 -0.000001 -0.000001 2.782739 -18.456447 -8.918378 -0.041913 1.214219 6.817504 0.000001 -0.000000 -0.000001 0.000001 -0.000000 -0.000001 0.000001 0.000000 -0.000001 0.000001 -0.000001 -0.000001 -0.000001 0.000000 0.000001 -0.000001 0.000001 -0.000000 -0.000001 0.000000 0.000001 -0.000001 0.000001 0.000001 0.000002 -0.000000 0.000000 0.000002 -0.000000 0.000000 0.000002 -0.000000 0.000000 0.000002 -0.000000 0.000000 0.000002 -0.000000 0.000000 0.000002 -0.000000 0.000000 0.000002 -0.000000 0.000000 -0.000000 -0.000000 -0.000000 -0.000000 0.000000 0.000000 
-0.242636 53.562752 3.447960 -0.721645 2.458991 1.247170 0.000000 0.000000 -0.000000 -100.714247 -6.824311 11.549440 122.480851 -3.897337 -3.151305 -19.710539 6.003032 -0.683841 -0.000000 -0.000000 -0.000000 0.000000 0.000000 -0.000000 -101.139747 14.005502 -20.413747 133.854537 3.581095 2.987127 -8.278082 10.165531 -0.403014 0.000004 -0.000000 0.000000 0.000003 -0.000002 -0.000000 5.944635 -0.648154 -0.133657 11.895158 -0.799695 0.275512 11.895159 -0.799695 0.275512 -0.274325 0.134080 -0.114908 -0.274339 0.134080 -0.114908 0.000002 0.000000 0.000000 -0.274330 0.134080 -0.114908 -0.274320 0.134080 -0.114908 0.000001 0.000000 -0.000000 0.000002 0.000000 0.000000 -0.370776 -11.651261 -1.889014 18.368986 -32.691413 -63.215716 -0.218096 -28.817039 -0.013130 -12.027631 -5.788893 15.336650 10.095735 8.384694 7.495969 5.003761 12.078264 2.236713 0.000001 -0.000000 -0.000003 0.831603 -10.481939 18.868787 0.090391 0.386211 -20.538541 -0.000002 -0.000001 0.000001 1.042092 -2.455533 3.908886 -0.340736 -1.723985 -21.616874 0.000001 0.000001 -0.000001 -0.169548 6.551166 0.870755 -0.219693 -1.479208 -17.617565 -0.000002 -0.000001 -0.000000 0.488775 12.763049 6.542714 -0.099692 -1.328204 -11.076489 -0.000000 -0.000005 0.000002 0.000002 0.000000 -0.000000 0.000002 0.000000 -0.000000 0.000001 0.000000 0.000000 0.000000 -0.000002 -0.000000 -0.000000 -0.000003 -0.000001 0.000000 -0.000002 -0.000000 -0.000002 -0.000003 -0.000002 1.845884 -2.036931 6.669599 8.468860 16.241003 58.317924 -0.145346 30.514895 -0.021067 47.592154 4.455947 -5.010503 -4.030261 -4.249073 -9.822152 0.455588 -3.522108 -2.143908 0.000000 0.000000 0.000001 -4.840818 3.819833 -15.586413 0.023696 -0.312400 6.718171 -0.000000 -0.000000 -0.000001 -0.221431 1.399534 -10.127352 -0.245697 1.267536 20.952881 0.000002 -0.000000 0.000001 0.258234 -12.422608 -9.716092 -0.398106 1.768226 16.596900 -0.000002 -0.000001 0.000000 2.783801 -18.434573 -8.940197 -0.041606 1.211644 6.802503 -0.000001 -0.000000 -0.000001 0.000001 -0.000000 -0.000000 0.000002 -0.000001 -0.000000 0.000001 -0.000000 0.000000 0.000002 -0.000002 -0.000000 0.000002 -0.000001 -0.000000 0.000002 -0.000002 -0.000000 0.000002 -0.000001 -0.000000 -0.000000 0.000000 -0.000000 -0.000000 0.000000 -0.000000 -0.000000 0.000000 -0.000000 -0.000000 0.000000 -0.000000 -0.000000 0.000000 -0.000000 -0.000000 0.000000 -0.000000 -0.000000 0.000000 -0.000000 0.000001 -0.000000 0.000000 0.000000 0.000000 -0.000000 
-0.241842 53.552727 3.427344 -0.605520 2.453616 1.271234 -0.000000 -0.000000 -0.000000 -100.813613 -6.813795 11.530206 122.443913 -3.910394 -3.153387 -19.658732 6.064779 -0.729882 -0.000000 -0.000000 -0.000000 -0.000001 0.000000 -0.000000 -101.340528 14.059723 -20.318255 133.839169 3.580228 2.987568 -8.191048 10.109442 -0.362867 0.000001 -0.000000 -0.000000 0.000001 -0.000002 0.000000 5.964009 -0.637090 -0.163141 11.933569 -0.779685 0.215533 11.933565 -0.779685 0.215532 -0.292995 0.134762 -0.119141 -0.293008 0.134762 -0.119142 0.000002 0.000000 -0.000000 -0.292992 0.134763 -0.119141 -0.292914 0.134762 -0.119141 0.000001 0.000000 -0.000000 0.000002 0.000000 0.000000 -0.354686 -11.612782 -1.782648 17.798114 -32.751812 -63.511798 -0.220780 -28.175488 -0.013351 -11.929875 -6.035871 15.441833 10.375982 8.572488 7.332849 5.032656 12.236070 2.263563 0.000003 -0.000000 -0.000001 0.796713 -10.443860 17.423459 0.100894 0.408049 -21.943241 0.000001 0.000001 -0.000000 1.046873 -2.616796 2.568102 -0.384012 -1.828309 -23.011850 -0.000001 -0.000000 -0.000001 -0.177382 6.446153 -0.471020 -0.256784 -1.592294 -19.003675 -0.000001 -0.000001 0.000002 0.490898 12.606951 5.168895 -0.133724 -1.492152 -12.460826 -0.000001 -0.000003 -0.000000 -0.000001 -0.000000 -0.000000 -0.000001 -0.000000 -0.000000 -0.000002 -0.000000 -0.000000 -0.000000 0.000003 0.000000 -0.000000 0.000002 0.000002 -0.000000 0.000003 0.000000 -0.000002 0.000002 -0.000001 1.842883 -2.112145 6.438109 8.160656 16.417393 58.651155 -0.146683 30.318783 -0.020283 47.850738 4.418024 -5.403479 -3.364073 -4.224509 -9.507984 0.233599 -3.641200 -2.298082 -0.000000 -0.000001 0.000001 -4.839002 3.850489 -15.535535 0.023722 -0.312604 6.723397 -0.000001 0.000000 -0.000000 -0.223868 1.402055 -10.101177 -0.244702 1.264983 20.908628 0.000000 0.000001 -0.000001 0.250648 -12.456431 -9.728867 -0.395373 1.758972 16.507589 -0.000001 0.000002 0.000000 2.783954 -18.398469 -8.955447 -0.041093 1.207473 6.778262 0.000001 0.000002 -0.000000 0.000001 -0.000000 -0.000000 0.000001 -0.000001 -0.000000 0.000001 -0.000001 -0.000000 0.000001 -0.000001 -0.000000 0.000001 0.000000 -0.000000 0.000001 -0.000001 -0.000000 0.000001 -0.000000 -0.000000 -0.000001 -0.000000 -0.000000 -0.000001 -0.000000 -0.000000 -0.000001 -0.000000 -0.000000 -0.000001 -0.000000 -0.000000 -0.000001 -0.000000 -0.000000 -0.000001 -0.000000 -0.000000 -0.000001 -0.000000 -0.000000 0.000000 0.000000 -0.000000 -0.000000 -0.000000 -0.000000 
-0.240342 53.553833 3.422927 -0.501686 2.426992 1.309663 0.000000 0.000000 0.000000 -100.877946 -6.766101 11.511901 122.414380 -3.910306 -3.153541 -19.666766 6.133413 -0.732966 -0.000000 0.000001 0.000000 -0.000000 -0.000000 -0.000000 -101.500497 14.131962 -20.204157 133.822230 3.585715 2.988754 -8.133238 10.058014 -0.308105 0.000002 -0.000000 -0.000000 -0.000000 0.000003 -0.000002 5.976804 -0.640363 -0.186998 11.959027 -0.787843 0.168893 11.959035 -0.787842 0.168894 -0.309273 0.131014 -0.116016 -0.309258 0.131014 -0.116016 0.000000 -0.000000 -0.000000 -0.309210 0.131014 -0.116017 -0.309336 0.131014 -0.116016 0.000002 -0.000000 0.000000 0.000000 -0.000000 -0.000000 -0.339855 -11.551967 -1.661228 17.009480 -32.964163 -63.977241 -0.225960 -27.031975 -0.013766 -11.630644 -6.987747 15.359729 10.983357 8.711032 7.293653 5.095273 12.585920 2.318111 -0.000000 -0.000000 0.000002 0.760236 -10.415932 15.866495 0.112804 0.430954 -23.454161 -0.000003 -0.000000 0.000000 1.043668 -2.766088 1.111260 -0.433195 -1.939266 -24.507812 0.000002 -0.000000 -0.000000 -0.189329 6.332510 -1.932762 -0.299887 -1.712872 -20.498460 0.000001 0.000001 0.000002 0.488816 12.443237 3.684915 -0.174790 -1.665369 -13.947734 -0.000001 -0.000003 -0.000000 -0.000001 -0.000000 -0.000000 -0.000001 -0.000000 -0.000000 -0.000002 0.000000 -0.000000 -0.000002 0.000000 -0.000001 -0.000002 -0.000001 -0.000000 -0.000002 0.000000 -0.000001 -0.000004 -0.000001 -0.000002 1.838499 -2.176301 6.297377 7.866674 16.523693 58.926009 -0.148783 29.870692 -0.018749 48.270689 4.380441 -5.972963 -2.625619 -4.270656 -9.190130 -0.027997 -3.762981 -2.490355 0.000001 -0.000003 -0.000001 -4.845483 3.866736 -15.452410 0.023701 -0.312474 6.719953 -0.000001 0.000000 -0.000000 -0.225123 1.413735 -10.072058 -0.243890 1.262849 20.872051 0.000000 0.000000 0.000000 0.245761 -12.484176 -9.729155 -0.393134 1.751470 16.434929 -0.000001 0.000001 -0.000000 2.785985 -18.372251 -8.949425 -0.040417 1.202114 6.747056 0.000001 0.000003 -0.000001 0.000001 -0.000000 -0.000001 0.000002 -0.000001 -0.000001 0.000001 -0.000001 -0.000001 0.000001 0.000000 -0.000000 0.000001 0.000001 -0.000001 0.000001 0.000000 -0.000000 0.000001 0.000001 -0.000001 -0.000001 0.000000 0.000000 -0.000001 0.000000 0.000000 -0.000001 0.000000 0.000000 -0.000001 0.000000 0.000000 -0.000001 0.000000 0.000000 -0.000001 0.000000 0.000000 -0.000001 0.000000 0.000000 0.000000 -0.000000 -0.000000 0.000000 0.000000 0.000000 
